<?xml version="1.0" encoding="utf-8"?>
<!-- Generator: Adobe Illustrator 16.0.3, SVG Export Plug-In . SVG Version: 6.00 Build 0)  -->
<!DOCTYPE svg PUBLIC "-//W3C//DTD SVG 1.1//EN" "http://www.w3.org/Graphics/SVG/1.1/DTD/svg11.dtd">
<svg version="1.1" id="Capa_1" xmlns="http://www.w3.org/2000/svg" xmlns:xlink="http://www.w3.org/1999/xlink" x="0px" y="0px"
	 width="560px" height="960px" viewBox="0 0 560 960" enable-background="new 0 0 560 960" xml:space="preserve">
<path stroke="#F9F7F7" stroke-miterlimit="10" d="M269.5,30.853v423.587c-2,0.056-3.811,0.085-5.697,0.085
	c-14.323,0-28.731-1.517-42.189-4.397l-4.114-7.246v-86.998l-37.879,79.908l-31.504-89.025l-13.568,60.055
	c-25.27-21.626-44.972-49.504-56.842-81.227l24.601-107.928l23.893-104.837l8.855-38.883l13.333-58.523l0.016-0.057l0.028,0.057
	l-13.257,58.523l13.805-58.523l0.519-0.057V15.5h-1.037c2.042,0,4.112-2,6.239-2h0.015c0.085,0,0.156,0.295,0.242,0.337
	c-0.086,0.015-0.157,0.134-0.242,0.149c0.921,0.312,1.857,0.676,2.821,0.987c0.185,0.072,0.384,0.155,0.568,0.211
	c0.057,0.014,0.113,0.055,0.17,0.055c0.085,0.043,0.155,0.079,0.242,0.092c1.602,0.567,3.261,1.095,4.963,1.592
	c3.375,0.978,6.906,1.916,10.592,2.781c1.234,0.298,2.231,0.583,3.494,0.865c0.723,0.17,1.934,0.328,1.934,0.483v186.474
	l28.03-121.938l5.024-21.483l5.695-24.648l2.789-11.958h0.013C236.126,29.5,252.5,30.498,269.5,30.853z"/>
<path stroke="#F7F0F0" stroke-miterlimit="10" d="M461.824,315.187c-0.113,0.369-0.51,0.723-0.693,1.077
	c-0.029,0.043-0.209,0.1-0.238,0.142c-0.113,0.17-0.393,0.34-0.393,0.525v0.014c-11,36.642-33.584,68.62-62.668,92.5
	c-0.057,0.057-0.052,0.099-0.108,0.155c-3.998,3.29-7.988,6.424-12.257,9.374l-28.556-125.441l-33.682,147.801l-1.438,6.166h-0.113
	c-14.067,5-28.178,6.527-43.178,6.939V30.853c3,0.099,8.522,0.167,13.002,0.167c1.957,0,3.588,0.48,5.53,0.48h0.1l6.608,28.731
	l5.786,25.257l15.116,66.323l17.867,78.425l4.339-45.31l-12.266-53.866l-10.722-47.056l-4.763-20.96l-7.318-32.211
	c17.782-1.418,34.629-3.333,50.086-4.333h0.042c0.029,0,0.057,0.247,0.086,0.247l9.401,27.514l6.862,20.239h0.016l6.227,17.414
	v0.113l10.663,32.445l8.337,25.695v-0.085l0.375,0.085l0.133-0.524l0.271,0.524l-3.006-45.478l0.227-3.147v-0.015l-0.24-1.872
	l-2.76-32.162v-0.014L394.978,24.5h0.496l0.042-0.156l9.205,40.252l12.789,56.116l0.015-0.028L461.824,315.187z"/>
<path stroke="#000000" stroke-miterlimit="10" d="M396.537,796.516c-34.018,27.354-77.512,43.72-124.562,43.72
	c-49.589,0-94.569-18.181-129.979-48.229c0.099-0.086-0.016-0.156,0.082-0.24c30.206-24.278,67.422-39.905,108.422-43.097V508.808
	l-25.891-51.589c13.458,2.879,27.533,4.396,41.856,4.396c1.886,0,3.811-0.246,5.684-0.303c15.086-0.411,29.79-1.812,43.857-6.812
	h0.113l-1.906,7.01L288.5,510.297v239.041c41,4.636,78.211,21.639,107.664,47.164C396.164,796.502,396.523,796.516,396.537,796.516z
	"/>
<g>
	<rect x="65.353" y="901.661" fill="none" width="408.997" height="51.497"/>
	<path stroke="#FFFFFF" stroke-miterlimit="10" d="M110.098,902.379c-0.252,3.781-0.621,10.677-1.107,20.686
		c-0.252,6.157-0.441,13.088-0.567,20.793h-9.775l-0.27-12.719l-9.532,13.718l-10.289-13.61l-0.27,12.611h-9.722
		c-0.126-4.122-0.369-11.089-0.729-20.901c-0.252-5.652-0.711-12.512-1.377-20.577h15.474c0.54,1.314,1.467,3.439,2.781,6.373
		c1.008,2.089,2.385,4.555,4.132,7.399c0.773-1.224,2.196-3.754,4.267-7.588c0.738-1.422,1.683-3.483,2.835-6.185H110.098z"/>
	<path stroke="#FFFFFF" stroke-miterlimit="10" d="M145.338,943.857h-14.771l-0.999-3.592c-0.415,0.162-1.45,0.712-3.105,1.647
		c-1.063,0.685-2.241,1.594-3.538,2.728l-1.539-3.268c-0.307-0.648-0.748-1.557-1.323-2.728l-1.458,5.212h-7.831
		c1.152-4.446,2.934-11.782,5.347-22.008c1.476-6.841,2.709-13.331,3.7-19.471h16.229c0.504,2.827,1.881,9.407,4.131,19.74
		C141.422,927.521,143.142,934.767,145.338,943.857z M128.298,935c-0.306-0.954-0.846-2.502-1.62-4.645
		c-0.468-1.188-1.179-2.826-2.133-4.915c-0.414,1.045-1.063,2.755-1.944,5.131c-0.486,1.368-1.063,3.231-1.728,5.59
		c0.54,0,1.764-0.107,3.672-0.324C125.697,935.675,126.948,935.396,128.298,935z"/>
	<path stroke="#FFFFFF" stroke-miterlimit="10" d="M182.604,917.906c0,3.313-0.928,6.248-2.781,8.804
		c-1.639,2.232-3.691,3.835-6.157,4.807c0.522,0.811,1.81,2.512,3.862,5.104c1.026,1.188,2.592,2.755,4.699,4.699
		c-0.847,0.306-2.71,1.08-5.59,2.322c-2.017,0.918-3.916,1.818-5.698,2.7c-0.522-0.648-1.683-2.322-3.483-5.022
		c-0.828-1.368-2.043-3.673-3.646-6.913h-0.054l-0.27,9.451h-15.204c-0.198-3.925-0.477-10.396-0.837-19.416
		c-0.162-5.311-0.531-12.665-1.107-22.063c4.951-0.521,9.469-0.782,13.556-0.782C175.033,901.597,182.604,907.033,182.604,917.906z
		 M170.344,923.739c0-1.71-0.72-2.934-2.161-3.672c-1.062-0.54-2.394-0.774-3.997-0.702l-0.162,9.235c1.494,0,2.826-0.333,3.997-1
		C169.569,926.737,170.344,925.45,170.344,923.739z"/>
	<path stroke="#FFFFFF" stroke-miterlimit="10" d="M202.91,902.379l-1.053,22.063c-0.198,4.753-0.432,11.225-0.702,19.416h-15.149
		l-1.836-41.479H202.91z"/>
	<path stroke="#FFFFFF" stroke-miterlimit="10" d="M242.012,923.442c0,6.499-2.017,11.611-6.049,15.338
		c-4.159,3.871-10.019,5.807-17.58,5.807c-4.861,0-8.614-0.243-11.261-0.729l-0.729-20.063c-0.234-5.149-0.658-12.251-1.27-21.307
		c3.907-0.558,7.984-0.837,12.233-0.837c7.579,0,13.511,1.765,17.796,5.293C239.726,910.724,242.012,916.224,242.012,923.442z
		 M230.94,926.764c0-2.646-0.855-4.6-2.565-5.859c-1.422-1.044-3.24-1.521-5.455-1.432l-0.378,16.932
		c2.304-0.144,4.186-0.891,5.644-2.241C230.022,932.488,230.94,930.022,230.94,926.764z"/>
	<path stroke="#FFFFFF" stroke-miterlimit="10" d="M277.09,943.857h-14.771l-0.999-3.592c-0.415,0.162-1.45,0.712-3.105,1.647
		c-1.063,0.685-2.241,1.594-3.538,2.728l-1.539-3.268c-0.307-0.648-0.748-1.557-1.323-2.728l-1.458,5.212h-7.831
		c1.152-4.446,2.934-11.782,5.347-22.008c1.476-6.841,2.709-13.331,3.7-19.471h16.229c0.504,2.827,1.881,9.407,4.131,19.74
		C273.174,927.521,274.894,934.767,277.09,943.857z M260.05,935c-0.306-0.954-0.846-2.502-1.62-4.645
		c-0.468-1.188-1.179-2.826-2.133-4.915c-0.414,1.045-1.063,2.755-1.944,5.131c-0.486,1.368-1.063,3.231-1.728,5.59
		c0.54,0,1.764-0.107,3.672-0.324C257.449,935.675,258.7,935.396,260.05,935z"/>
	<path stroke="#FFFFFF" stroke-miterlimit="10" d="M314.355,917.906c0,3.313-0.928,6.248-2.781,8.804
		c-1.639,2.232-3.69,3.835-6.157,4.807c0.522,0.811,1.81,2.512,3.861,5.104c1.026,1.188,2.593,2.755,4.699,4.699
		c-0.847,0.306-2.71,1.08-5.59,2.322c-2.017,0.918-3.916,1.818-5.698,2.7c-0.522-0.648-1.684-2.322-3.483-5.022
		c-0.828-1.368-2.043-3.673-3.646-6.913h-0.054l-0.271,9.451h-15.203c-0.198-3.925-0.477-10.396-0.837-19.416
		c-0.162-5.311-0.531-12.665-1.107-22.063c4.951-0.521,9.47-0.782,13.557-0.782C306.785,901.597,314.355,907.033,314.355,917.906z
		 M302.096,923.739c0-1.71-0.721-2.934-2.16-3.672c-1.063-0.54-2.395-0.774-3.997-0.702l-0.162,9.235c1.494,0,2.826-0.333,3.997-1
		C301.321,926.737,302.096,925.45,302.096,923.739z"/>
	<path stroke="#FFFFFF" stroke-miterlimit="10" d="M382.621,902.379c-1.584,4.447-4.051,11.747-7.399,21.9
		c-1.458,4.717-3.394,11.243-5.806,19.578h-9.694c-0.9-3.78-2.521-10.234-4.86-19.362c-1.477,4.699-3.466,11.153-5.968,19.362h-9.56
		c-1.152-4.122-3.124-10.855-5.914-20.199c-1.639-5.131-4.06-12.224-7.264-21.279h18.416c0.378,1.765,1.044,4.618,1.998,8.561
		l2.863,10.802c0.521-1.494,1.296-4.096,2.322-7.804c-0.847-3.15-1.927-7.003-3.241-11.559h16.743
		c0.287,1.729,0.765,4.528,1.431,8.398c0.486,2.575,1.152,6.229,1.998,10.964l2.782-11.018c0.504-2.088,1.089-4.869,1.755-8.345
		H382.621z"/>
	<path stroke="#FFFFFF" stroke-miterlimit="10" d="M402.738,902.379l-1.053,22.063c-0.198,4.753-0.433,11.225-0.702,19.416h-15.149
		l-1.836-41.479H402.738z"/>
	<path stroke="#FFFFFF" stroke-miterlimit="10" d="M438.141,902.379c-0.252,3.637-0.604,9.983-1.053,19.038
		c-0.271,6.661-0.496,14.321-0.676,22.98c-2.358-1.854-5.95-4.617-10.774-8.29c-2.089-1.458-5.203-3.646-9.343-6.563l-0.271,14.313
		h-8.695c-0.145-3.654-0.478-10.549-0.999-20.685c-0.45-8.21-0.909-15.141-1.377-20.794h13.556l10.046,9.506
		c0-2.178-0.037-3.889-0.108-5.131c-0.054-1.098-0.162-2.556-0.324-4.375H438.141z"/>
	<path stroke="#FFFFFF" stroke-miterlimit="10" d="M468.736,902.379l-1.161,17.094c-0.666-0.107-2.106-0.297-4.32-0.566
		c-1.513-0.145-3.169-0.234-4.969-0.271l-0.405,5.158c1.98,0.054,5.212,0.009,9.694-0.136c-0.198,0.667-0.513,1.908-0.945,3.727
		c-0.252,1.099-0.477,2.368-0.675,3.808c-0.522-0.126-1.827-0.287-3.916-0.486c-0.972-0.054-2.412-0.071-4.32-0.054l-0.271,6.022
		c1.351-0.019,3.835-0.136,7.453-0.352c0.685-0.054,1.81-0.27,3.376-0.648c-0.145,0.559-0.478,1.9-0.999,4.024
		c-0.253,1.098-0.559,2.484-0.918,4.158h-24.169l-0.783-21.171c-0.145-4.843-0.495-11.612-1.053-20.308H468.736z"/>
</g>
<g>
</g>
<g>
</g>
<g>
</g>
<g>
</g>
<g>
</g>
<g>
</g>
<g>
</g>
<g>
</g>
<g>
</g>
<g>
</g>
<g>
</g>
<g>
</g>
<g>
</g>
<g>
</g>
<g>
</g>
</svg>
