<?xml version="1.0" encoding="utf-8"?>
<!-- Generator: Adobe Illustrator 16.0.3, SVG Export Plug-In . SVG Version: 6.00 Build 0)  -->
<!DOCTYPE svg PUBLIC "-//W3C//DTD SVG 1.1//EN" "http://www.w3.org/Graphics/SVG/1.1/DTD/svg11.dtd">
<svg version="1.1" xmlns="http://www.w3.org/2000/svg" xmlns:xlink="http://www.w3.org/1999/xlink" x="0px" y="0px" width="1080px"
	 height="1080px" viewBox="0 0 1080 1080" enable-background="new 0 0 1080 1080" xml:space="preserve">
<g id="Capa_3">
	
		<ellipse fill="#75153A" stroke="#000000" stroke-width="6" stroke-miterlimit="10" cx="561.322" cy="401.692" rx="206.356" ry="210.859"/>
</g>
<g id="Capa_1">
	<path fill="#020202" stroke="#000000" stroke-miterlimit="10" d="M576.5,935.97c61,3.663,111.495,25.634,130.238,55.065
		c-20.576,32.316-79.094,55.619-148.168,55.619c-69.076,0-127.633-23.303-148.208-55.619
		c19.056-29.921,71.138-52.119,133.138-55.242V652.375c-19-8.368-35.772-29.35-47.658-58.116c-1.166-2.8-2.342-5.672-3.342-8.607
		V429.81l-14.557,47.718l-29.441,96.53c-0.01-0.01-0.03-0.075-0.041-0.086c-0.156-0.084-0.311-0.472-0.467-0.472h-0.011
		c-0.021,0-0.042,0.045-0.062,0.034l-32.7-148.368l-10.386,116.966c-30.474-27.944-55.335-63.855-68.335-104.933v-0.011
		c0-0.146-0.168-0.302-0.22-0.447l62.148-276.81l16.472-73.383l-0.103-0.031c7.598,9.315,18.702,17.672,31.702,24.822v210.93
		l46.223-193.81c13.957,3.382,29.101,5.714,44.931,6.807c1.696,0.115,3.408,0.219,5.124,0.302c0.574,0.032,0.723,0.073,1.723,0.094
		v467.194c5,0.302,9.532,0.457,14.31,0.457c2.55,0,4.69-0.04,7.69-0.135V135.9c6-0.136,11.222-0.437,16.717-0.896
		c1.842-0.146,3.648-0.312,5.471-0.5c1.967-0.187,3.818-0.405,5.754-0.645c1.395-0.156,3.059-0.333,4.059-0.52v0.021l37,185.036
		V125.649c0-0.094,0.43-0.198,0.752-0.323c1.427-0.416,2.729-0.606,4.124-1.054c0.094-0.01,0.085,0.228,0.179,0.228h0.01
		c0.01,0,0.176-0.237,0.188-0.248L688.5,318.396V100.181c3-2.674,6.454-5.443,9.285-8.315c0.405-0.406,0.718-0.813,1.114-1.229
		c0.509-0.541,0.978-1.093,1.467-1.645c0.407-0.458,0.78-0.905,1.177-1.374c0.863-1.01,1.686-2.04,2.467-3.081l18.281,78.452
		l61.911,265.767c-17.12,55.306-51.394,102.192-96.032,133.404l-31.795-136.963l-16.568,76.235l-20.317,93.459l-5.149,23.001
		c-10.313,17.983-22.84,30.661-37.84,35.864V935.97z"/>
</g>
<g id="Capa_2">
	
		<ellipse fill="none" stroke="#000000" stroke-width="9" stroke-miterlimit="10" cx="557.734" cy="540.344" rx="346.32" ry="506.343"/>
</g>
</svg>
